<?xml version="1.0" standalone="no"?>
<!DOCTYPE svg PUBLIC "-//W3C//DTD SVG 20010904//EN"
 "http://www.w3.org/TR/2001/REC-SVG-20010904/DTD/svg10.dtd">
<svg version="1.0" xmlns="http://www.w3.org/2000/svg"
 width="700.000000pt" height="700.000000pt" viewBox="0 0 700.000000 700.000000"
 preserveAspectRatio="xMidYMid meet">
<metadata>
Created by potrace 1.14, written by Peter Selinger 2001-2017
</metadata>
<g transform="translate(0.000000,700.000000) scale(0.100000,-0.100000)"
fill="#e00b38" stroke="none">
<path d="M2696 5630 c7 -14 68 -108 135 -210 67 -102 134 -204 148 -227 14
-24 150 -233 301 -465 340 -524 420 -648 529 -815 47 -73 102 -158 122 -190
20 -32 132 -204 248 -381 116 -178 211 -326 211 -328 0 -3 5 -10 10 -17 6 -7
52 -76 103 -155 106 -164 215 -332 313 -482 38 -58 73 -113 79 -123 10 -17
322 -499 538 -830 60 -92 111 -166 114 -164 4 5 -7 47 -67 262 -23 83 -50 179
-60 215 -38 136 -50 180 -95 340 -26 91 -50 179 -54 195 -5 17 -30 107 -56
200 -26 94 -65 233 -86 310 -22 77 -46 163 -54 190 -42 148 -107 382 -111 395
-2 8 -13 48 -24 88 -11 39 -28 102 -39 140 -18 68 -56 202 -151 542 -52 187
-120 430 -166 595 -14 50 -32 114 -39 143 -8 29 -31 108 -50 176 -20 67 -37
132 -40 142 -3 18 -80 291 -113 404 -9 30 -16 60 -16 65 -1 7 -282 10 -823 10
l-821 0 14 -25z"/>
<path d="M2639 3906 c-2 -2 -24 -7 -49 -10 -81 -11 -104 -16 -203 -47 -136
-42 -354 -151 -397 -199 -3 -3 -21 -17 -40 -31 -19 -15 -62 -53 -96 -85 -222
-215 -347 -465 -399 -799 -8 -50 -8 -261 -1 -306 3 -19 8 -50 11 -69 51 -361
299 -729 622 -923 100 -60 269 -133 353 -152 141 -31 193 -38 312 -40 377 -7
709 126 974 390 318 317 451 772 359 1225 -33 162 -125 367 -228 505 -92 125
-245 265 -382 352 -44 28 -203 102 -255 118 -30 10 -64 21 -75 26 -60 24 -194
42 -341 45 -89 2 -163 2 -165 0z"/>
</g>
</svg>
